<svg xmlns="http://www.w3.org/2000/svg" viewBox="0 0 48 48" width="48" height="48">
  <!-- Background circle -->
  <circle cx="24" cy="24" r="23" fill="#065f46" stroke="#10b981" stroke-width="1.5"/>
  <!-- Inner circle -->
  <circle cx="24" cy="24" r="19" fill="none" stroke="#a7f3d0" stroke-width="0.5" opacity="0.5"/>
  <!-- Ocean waves -->
  <path d="M8 28 Q12 24 16 28 Q20 32 24 28 Q28 24 32 28 Q36 32 40 28" fill="none" stroke="#34d399" stroke-width="1.8" stroke-linecap="round"/>
  <path d="M10 32 Q14 28 18 32 Q22 36 26 32 Q30 28 34 32 Q38 36 40 33" fill="none" stroke="#6ee7b7" stroke-width="1.2" stroke-linecap="round" opacity="0.6"/>
  <!-- Leaf / coral element -->
  <path d="M24 8 C24 8 18 14 18 19 C18 22.3 20.7 25 24 25 C27.3 25 30 22.3 30 19 C30 14 24 8 24 8Z" fill="#10b981" opacity="0.8"/>
  <line x1="24" y1="11" x2="24" y2="24" stroke="#065f46" stroke-width="0.8"/>
  <path d="M24 15 L21 13" fill="none" stroke="#065f46" stroke-width="0.6"/>
  <path d="M24 17 L27 15" fill="none" stroke="#065f46" stroke-width="0.6"/>
  <path d="M24 19 L21 17.5" fill="none" stroke="#065f46" stroke-width="0.6"/>
  <!-- VCAP2 text along bottom -->
  <text x="24" y="42" text-anchor="middle" font-family="'Segoe UI',Arial,sans-serif" font-size="6.5" font-weight="800" fill="#ecfdf5" letter-spacing="1.5">VCAP2</text>
</svg>
